# xmcd
#
# Track frame offsets: 
#        150
#        20055
#        36585
#        54288
#        69965
#        87745
#        110856
#        125663
#        141652
#        158167
#        181139
#
# Disc length: 2530 seconds
#
# Revision: 0
# Processed by: cddbd v1.5.2PL0 Copyright (c) Steve Scherf et al.
# Submitted via: ExactAudioCopy v0.95a5
#
DISCID=a609e00b
DTITLE=Johnny Fabulous - The Curious Reprise
DYEAR=2008
DGENRE=Soul
TTITLE0=Feelin' Sassy
TTITLE1=If You Wanna
TTITLE2=Curious
TTITLE3=Steppin' Stone
TTITLE4=Missin' Mary
TTITLE5=A Private Affair
TTITLE6=All Over You
TTITLE7=Dirty Little Secret
TTITLE8=Lets Go Find A Room
TTITLE9=Fooled Around And Fell In Love
TTITLE10=The Curious Reprise
EXTD=
EXTT0=
EXTT1=
EXTT2=
EXTT3=
EXTT4=
EXTT5=
EXTT6=
EXTT7=
EXTT8=
EXTT9=
EXTT10=
PLAYORDER=
